<?xml version="1.0" standalone="no"?>
<!DOCTYPE svg PUBLIC "-//W3C//DTD SVG 20010904//EN"
 "http://www.w3.org/TR/2001/REC-SVG-20010904/DTD/svg10.dtd">
<svg version="1.0" xmlns="http://www.w3.org/2000/svg"
 width="128.000000pt" height="128.000000pt" viewBox="0 0 128.000000 128.000000"
 preserveAspectRatio="xMidYMid meet">
<metadata>
Created by potrace 1.14, written by Peter Selinger 2001-2017
</metadata>
<g transform="translate(0.000000,128.000000) scale(0.100000,-0.100000)"
fill="#000000" stroke="none">
<path d="M530 1164 c-106 -22 -196 -73 -273 -153 -203 -210 -205 -521 -6 -735
202 -217 555 -222 765 -12 211 211 205 562 -13 766 -52 49 -169 120 -207 126
-6 1 -38 7 -70 13 -75 14 -114 13 -196 -5z m312 -97 c99 -48 165 -114 212
-209 35 -72 40 -88 52 -180 16 -117 -42 -274 -136 -368 -94 -94 -251 -152
-368 -136 -92 12 -108 17 -180 52 -95 46 -161 113 -208 211 -34 70 -38 87 -42
179 -5 113 8 169 59 259 31 56 114 140 171 174 82 49 136 61 253 58 104 -3
115 -5 187 -40z"/>
<path d="M430 828 l-145 -151 42 6 c23 4 48 9 56 12 10 5 24 -24 56 -112 22
-65 41 -124 41 -130 0 -7 -9 -13 -19 -13 -16 0 -21 -9 -26 -47 -3 -27 -7 -58
-9 -71 -3 -20 0 -23 18 -18 12 3 125 26 251 51 127 25 236 48 242 50 22 7 -20
99 -46 103 -20 3 -21 8 -21 147 0 140 0 143 23 149 12 3 32 6 45 6 36 0 26 14
-26 33 -26 11 -56 23 -67 28 -57 25 -260 109 -265 109 -3 0 -71 -68 -150 -152z
m365 -184 c4 -75 3 -139 -1 -144 -5 -4 -28 -10 -51 -14 l-41 -6 -6 58 c-3 31
-8 94 -12 139 l-6 81 44 10 c23 5 48 10 54 11 8 1 14 -44 19 -135z m-176 -76
l17 -96 -34 -7 c-19 -3 -38 -3 -43 2 -9 10 -72 244 -66 249 2 3 24 8 48 12
l44 8 8 -36 c5 -19 16 -79 26 -132z"/>
</g>
</svg>
